Coordinates
version=1
nRows=15
nColumns=19
inDegrees=yes

Units are S.I. units (second, meters, Newtons, ...)
Angles are in degrees.

endheader
time	pelvis_tilt	pelvis_list	pelvis_rotation	pelvis_tx	pelvis_ty	pelvis_tz	hip_flexion_r	hip_adduction_r	hip_rotation_r	knee_angle_r	ankle_angle_r	subtalar_angle_r	hip_flexion_l	hip_adduction_l	hip_rotation_l	knee_angle_l	ankle_angle_l	subtalar_angle_l
      0.61666667	      5.34379294	      4.57985287	      2.43450471	      0.59045173	      1.01384861	     -0.01850171	     16.20887918	     -8.10797310	     -4.14572098	      0.78639991	      0.45214794	     -0.00000131	    -23.04249287	      5.43773708	      4.50646854	     -2.74846929	      9.31238733	      0.00000118
      0.63333333	      5.28288801	      4.53840465	      2.98988929	      0.59137008	      1.01239985	     -0.01612168	     16.92145651	     -7.97935382	     -4.44051042	     -1.95621887	     -0.20310884	     -0.00000167	    -23.39352944	      4.89019943	      5.21556817	     -4.27854498	      9.75887549	      0.00000143
      0.65000000	      5.13458319	      4.39753301	      3.49297572	      0.59281271	      1.01120365	     -0.01312664	     17.76654996	     -7.73780765	     -4.79921914	     -5.21022083	     -1.18866314	     -0.00000200	    -23.54399688	      4.25725204	      5.89445598	     -5.99892227	     10.01011196	      0.00000184
      0.66666667	      4.98793033	      4.34170623	      3.89337904	      0.59473156	      1.01069466	     -0.01061383	     18.49352575	     -7.63431093	     -4.99927406	     -8.45952087	     -2.26653256	     -0.00000219	    -23.49502972	      3.83467147	      6.55007841	     -8.11603000	      9.93287130	      0.00000220
      0.68333333	      5.03760072	      4.30111440	      4.02481118	      0.59639296	      1.01091031	     -0.00775957	     19.19412893	     -7.49742763	     -4.86765730	    -12.13589835	     -2.81881806	     -0.00000238	    -23.30993863	      3.56835780	      6.96889700	    -10.82175792	      9.51961521	      0.00000260
      0.70000000	      5.31950299	      4.03929194	      4.33689790	      0.59976286	      1.01223360	     -0.00535215	     19.25881119	     -7.19837902	     -4.91350249	    -15.48762553	     -2.81409400	     -0.00000255	    -23.09001959	      3.03819148	      7.38106660	    -14.09991871	      8.61684104	      0.00000316
      0.71666667	      5.63119067	      3.78915639	      4.57541292	      0.60285606	      1.01412373	     -0.00293678	     18.75811442	     -6.87971580	     -4.98564245	    -17.81922385	     -2.70700175	     -0.00000265	    -22.32185934	      2.61159171	      7.50594086	    -18.29728436	      7.20538055	      0.00000399
      0.73333333	      5.78294849	      3.68917227	      4.70259394	      0.60515798	      1.01577213	      0.00015163	     18.38220222	     -6.66180190	     -4.98962593	    -20.00839437	     -2.22176777	     -0.00000243	    -20.47171184	      2.42763478	      7.17521311	    -23.96270314	      5.29745314	      0.00000517
      0.75000000	      5.93665288	      3.44385108	      4.78246328	      0.60790096	      1.01785541	      0.00327041	     17.48711233	     -6.25341046	     -5.21087020	    -21.28542983	     -1.55850054	     -0.00000189	    -18.20468911	      2.02195332	      6.24214584	    -29.98146611	      2.36480095	      0.00000620
      0.76666667	      5.93779521	      3.13879803	      4.88392064	      0.60992992	      1.01974193	      0.00620928	     16.60741633	     -5.76332975	     -5.44249983	    -22.23672813	     -0.56941102	     -0.00000158	    -15.19110354	      1.37574504	      4.74960475	    -36.48034588	     -1.37073465	      0.00000699
      0.78333333	      5.94289301	      2.61214479	      4.97874653	      0.61057593	      1.02160441	      0.00966883	     15.47855541	     -4.95479234	     -5.77766763	    -22.48999410	      0.33869696	     -0.00000121	    -11.88650614	      0.23180856	      2.95598310	    -42.80477311	     -5.35056605	      0.00000681
      0.80000000	      6.02206371	      1.88335369	      4.90518490	      0.61117441	      1.02342515	      0.01332172	     14.25016069	     -3.84019225	     -5.91981928	    -22.61380129	      1.40438387	     -0.00000130	     -8.64865697	     -1.34901231	      0.94174060	    -48.65135144	     -8.75074137	      0.00000580
      0.81666667	      6.11260304	      1.12912820	      4.97988136	      0.61149951	      1.02586147	      0.01707580	     12.62218508	     -2.67425984	     -6.21368953	    -21.93088179	      2.19924519	     -0.00000131	     -5.64893191	     -3.03326542	     -0.51489555	    -53.60121767	    -10.71885610	      0.00000360
      0.83333333	      6.24448206	      0.70740917	      5.01176857	      0.61132631	      1.02866183	      0.02042202	     10.95393270	     -1.85507782	     -6.32929015	    -21.22172897	      2.97481921	     -0.00000130	     -2.85336523	     -4.23455223	     -1.55568412	    -57.82072142	    -11.03409452	      0.00000100
      0.85000000	      6.38081338	      0.41925538	      4.87584367	      0.61100195	      1.03179796	      0.02366513	      9.09495076	     -1.14741228	     -6.27372924	    -20.07418762	      3.51797740	     -0.00000137	     -0.24332263	     -5.04344590	     -2.29992951	    -61.25799917	    -10.05188474	     -0.00000150
